<svg data-v-423bf9ae="" xmlns="http://www.w3.org/2000/svg" viewBox="0 0 473 90" class="iconLeftSlogan"><!----><!----><!----><g data-v-423bf9ae="" id="68d40025-3ee0-457c-aedd-a87374fb0536" fill="#250A05" transform="matrix(6.329114229666516,0,0,6.329114229666516,102.65821444632942,-7.531646772295133)"><path d="M1.16 1.36L3.35 1.36L3.35 1.36Q4.10 1.36 4.77 1.50L4.77 1.50L4.77 1.50Q5.43 1.65 5.93 1.99L5.93 1.99L5.93 1.99Q6.43 2.34 6.72 2.90L6.72 2.90L6.72 2.90Q7.01 3.46 7.01 4.30L7.01 4.30L7.01 4.30Q7.01 5.11 6.72 5.67L6.72 5.67L6.72 5.67Q6.43 6.23 5.94 6.58L5.94 6.58L5.94 6.58Q5.46 6.93 4.84 7.08L4.84 7.08L4.84 7.08Q4.21 7.24 3.56 7.24L3.56 7.24L2.56 7.24L2.56 10.50L1.16 10.50L1.16 1.36ZM2.56 5.99L3.44 5.99L3.44 5.99Q3.84 5.99 4.21 5.91L4.21 5.91L4.21 5.91Q4.59 5.82 4.89 5.63L4.89 5.63L4.89 5.63Q5.18 5.43 5.36 5.11L5.36 5.11L5.36 5.11Q5.53 4.79 5.53 4.30L5.53 4.30L5.53 4.30Q5.53 3.79 5.36 3.46L5.36 3.46L5.36 3.46Q5.18 3.14 4.88 2.95L4.88 2.95L4.88 2.95Q4.58 2.76 4.17 2.68L4.17 2.68L4.17 2.68Q3.77 2.60 3.32 2.60L3.32 2.60L2.56 2.60L2.56 5.99ZM13.55 7.10L15.15 10.50L13.64 10.50L12.19 7.73L12.19 7.73Q12.19 7.73 12.12 7.59L12.12 7.59L12.12 7.59Q12.04 7.45 11.90 7.28L11.90 7.28L11.90 7.28Q11.76 7.11 11.55 6.96L11.55 6.96L11.55 6.96Q11.34 6.82 11.09 6.82L11.09 6.82L9.97 6.82L9.97 10.50L8.57 10.50L8.57 1.36L10.74 1.36L10.74 1.36Q11.33 1.36 11.97 1.40L11.97 1.40L11.97 1.40Q12.61 1.44 13.15 1.70L13.15 1.70L13.15 1.70Q13.69 1.96 14.05 2.52L14.05 2.52L14.05 2.52Q14.41 3.08 14.41 4.10L14.41 4.10L14.41 4.10Q14.41 4.82 14.08 5.24L14.08 5.24L14.08 5.24Q13.76 5.66 13.38 5.88L13.38 5.88L13.38 5.88Q12.92 6.13 12.36 6.24L12.36 6.24L12.36 6.24Q12.68 6.31 13.01 6.47L13.01 6.47L13.01 6.47Q13.33 6.64 13.55 7.10L13.55 7.10ZM9.97 5.57L10.82 5.57L10.82 5.57Q11.21 5.57 11.59 5.55L11.59 5.55L11.59 5.55Q11.96 5.53 12.24 5.39L12.24 5.39L12.24 5.39Q12.53 5.25 12.71 4.95L12.71 4.95L12.71 4.95Q12.88 4.65 12.88 4.10L12.88 4.10L12.88 4.10Q12.88 3.54 12.71 3.23L12.71 3.23L12.71 3.23Q12.53 2.93 12.23 2.79L12.23 2.79L12.23 2.79Q11.93 2.65 11.52 2.63L11.52 2.63L11.52 2.63Q11.12 2.60 10.67 2.60L10.67 2.60L9.97 2.60L9.97 5.57ZM20.73 1.19L20.73 1.19L20.73 1.19Q21.42 1.19 22.19 1.39L22.19 1.39L22.19 1.39Q22.96 1.60 23.61 2.12L23.61 2.12L23.61 2.12Q24.26 2.65 24.69 3.56L24.69 3.56L24.69 3.56Q25.12 4.48 25.12 5.91L25.12 5.91L25.12 5.91Q25.12 6.87 24.92 7.60L24.92 7.60L24.92 7.60Q24.72 8.33 24.39 8.86L24.39 8.86L24.39 8.86Q24.05 9.39 23.61 9.74L23.61 9.74L23.61 9.74Q23.17 10.08 22.68 10.29L22.68 10.29L22.68 10.29Q22.19 10.50 21.69 10.58L21.69 10.58L21.69 10.58Q21.18 10.67 20.73 10.67L20.73 10.67L20.73 10.67Q20.29 10.67 19.78 10.58L19.78 10.58L19.78 10.58Q19.26 10.50 18.77 10.29L18.77 10.29L18.77 10.29Q18.28 10.08 17.84 9.74L17.84 9.74L17.84 9.74Q17.39 9.39 17.05 8.86L17.05 8.86L17.05 8.86Q16.72 8.33 16.51 7.60L16.51 7.60L16.51 7.60Q16.31 6.87 16.31 5.91L16.31 5.91L16.31 5.91Q16.31 4.48 16.74 3.56L16.74 3.56L16.74 3.56Q17.18 2.65 17.84 2.12L17.84 2.12L17.84 2.12Q18.49 1.60 19.27 1.39L19.27 1.39L19.27 1.39Q20.05 1.19 20.73 1.19ZM20.73 9.42L20.73 9.42L20.73 9.42Q21.36 9.42 21.90 9.24L21.90 9.24L21.90 9.24Q22.43 9.06 22.81 8.64L22.81 8.64L22.81 8.64Q23.20 8.22 23.41 7.55L23.41 7.55L23.41 7.55Q23.62 6.87 23.62 5.89L23.62 5.89L23.62 5.89Q23.62 4.94 23.41 4.28L23.41 4.28L23.41 4.28Q23.20 3.63 22.81 3.21L22.81 3.21L22.81 3.21Q22.43 2.80 21.90 2.62L21.90 2.62L21.90 2.62Q21.36 2.44 20.73 2.44L20.73 2.44L20.73 2.44Q20.09 2.44 19.55 2.62L19.55 2.62L19.55 2.62Q19.01 2.80 18.63 3.21L18.63 3.21L18.63 3.21Q18.24 3.63 18.03 4.29L18.03 4.29L18.03 4.29Q17.81 4.96 17.81 5.91L17.81 5.91L17.81 5.91Q17.81 6.87 18.03 7.55L18.03 7.55L18.03 7.55Q18.24 8.22 18.63 8.64L18.63 8.64L18.63 8.64Q19.01 9.06 19.55 9.24L19.55 9.24L19.55 9.24Q20.09 9.42 20.73 9.42ZM32.00 2.24L31.49 3.46L31.49 3.46Q31.00 3.09 30.40 2.88L30.40 2.88L30.40 2.88Q29.81 2.67 29.25 2.67L29.25 2.67L29.25 2.67Q28.59 2.67 28.19 2.94L28.19 2.94L28.19 2.94Q27.79 3.21 27.79 3.79L27.79 3.79L27.79 3.79Q27.79 4.10 27.94 4.32L27.94 4.32L27.94 4.32Q28.08 4.54 28.33 4.70L28.33 4.70L28.33 4.70Q28.57 4.86 28.90 4.98L28.90 4.98L28.90 4.98Q29.22 5.10 29.58 5.22L29.58 5.22L29.58 5.22Q30.06 5.39 30.55 5.58L30.55 5.58L30.55 5.58Q31.04 5.77 31.44 6.08L31.44 6.08L31.44 6.08Q31.84 6.38 32.08 6.85L32.08 6.85L32.08 6.85Q32.33 7.32 32.33 8.02L32.33 8.02L32.33 8.02Q32.33 8.71 32.06 9.21L32.06 9.21L32.06 9.21Q31.79 9.70 31.36 10.03L31.36 10.03L31.36 10.03Q30.93 10.36 30.36 10.51L30.36 10.51L30.36 10.51Q29.79 10.67 29.19 10.67L29.19 10.67L29.19 10.67Q28.29 10.67 27.44 10.32L27.44 10.32L27.44 10.32Q26.59 9.98 25.97 9.34L25.97 9.34L26.50 8.18L26.50 8.18Q27.05 8.75 27.79 9.06L27.79 9.06L27.79 9.06Q28.53 9.37 29.25 9.37L29.25 9.37L29.25 9.37Q29.93 9.37 30.38 9.09L30.38 9.09L30.38 9.09Q30.83 8.81 30.84 8.18L30.84 8.18L30.84 8.18Q30.84 7.84 30.69 7.59L30.69 7.59L30.69 7.59Q30.53 7.35 30.27 7.17L30.27 7.17L30.27 7.17Q30.00 7 29.66 6.87L29.66 6.87L29.66 6.87Q29.32 6.73 28.97 6.61L28.97 6.61L28.97 6.61Q28.50 6.45 28.04 6.26L28.04 6.26L28.04 6.26Q27.57 6.06 27.19 5.76L27.19 5.76L27.19 5.76Q26.81 5.46 26.58 5.01L26.58 5.01L26.58 5.01Q26.35 4.56 26.35 3.91L26.35 3.91L26.35 3.91Q26.35 3.23 26.60 2.75L26.60 2.75L26.60 2.75Q26.85 2.27 27.27 1.96L27.27 1.96L27.27 1.96Q27.68 1.65 28.21 1.50L28.21 1.50L28.21 1.50Q28.74 1.36 29.32 1.36L29.32 1.36L29.32 1.36Q30.07 1.36 30.77 1.60L30.77 1.60L30.77 1.60Q31.47 1.83 32.00 2.24L32.00 2.24ZM38.37 1.19L38.37 1.19L38.37 1.19Q39.06 1.19 39.83 1.39L39.83 1.39L39.83 1.39Q40.60 1.60 41.25 2.12L41.25 2.12L41.25 2.12Q41.90 2.65 42.33 3.56L42.33 3.56L42.33 3.56Q42.76 4.48 42.76 5.91L42.76 5.91L42.76 5.91Q42.76 6.87 42.56 7.60L42.56 7.60L42.56 7.60Q42.36 8.33 42.03 8.86L42.03 8.86L42.03 8.86Q41.69 9.39 41.25 9.74L41.25 9.74L41.25 9.74Q40.81 10.08 40.32 10.29L40.32 10.29L40.32 10.29Q39.83 10.50 39.33 10.58L39.33 10.58L39.33 10.58Q38.82 10.67 38.37 10.67L38.37 10.67L38.37 10.67Q37.93 10.67 37.42 10.58L37.42 10.58L37.42 10.58Q36.90 10.50 36.41 10.29L36.41 10.29L36.41 10.29Q35.92 10.08 35.48 9.74L35.48 9.74L35.48 9.74Q35.03 9.39 34.69 8.86L34.69 8.86L34.69 8.86Q34.36 8.33 34.15 7.60L34.15 7.60L34.15 7.60Q33.95 6.87 33.95 5.91L33.95 5.91L33.95 5.91Q33.95 4.48 34.38 3.56L34.38 3.56L34.38 3.56Q34.82 2.65 35.48 2.12L35.48 2.12L35.48 2.12Q36.13 1.60 36.91 1.39L36.91 1.39L36.91 1.39Q37.69 1.19 38.37 1.19ZM38.37 9.42L38.37 9.42L38.37 9.42Q39.00 9.42 39.54 9.24L39.54 9.24L39.54 9.24Q40.07 9.06 40.45 8.64L40.45 8.64L40.45 8.64Q40.84 8.22 41.05 7.55L41.05 7.55L41.05 7.55Q41.26 6.87 41.26 5.89L41.26 5.89L41.26 5.89Q41.26 4.94 41.05 4.28L41.05 4.28L41.05 4.28Q40.84 3.63 40.45 3.21L40.45 3.21L40.45 3.21Q40.07 2.80 39.54 2.62L39.54 2.62L39.54 2.62Q39.00 2.44 38.37 2.44L38.37 2.44L38.37 2.44Q37.73 2.44 37.19 2.62L37.19 2.62L37.19 2.62Q36.65 2.80 36.27 3.21L36.27 3.21L36.27 3.21Q35.88 3.63 35.67 4.29L35.67 4.29L35.67 4.29Q35.45 4.96 35.45 5.91L35.45 5.91L35.45 5.91Q35.45 6.87 35.67 7.55L35.67 7.55L35.67 7.55Q35.88 8.22 36.27 8.64L36.27 8.64L36.27 8.64Q36.65 9.06 37.19 9.24L37.19 9.24L37.19 9.24Q37.73 9.42 38.37 9.42ZM49.87 9.27L49.87 10.50L44.73 10.50L44.73 1.34L46.13 1.34L46.13 9.27L49.87 9.27ZM56.88 1.36L56.88 1.36L58.37 1.36L54.67 10.50L52.89 10.50L49.20 1.36L50.67 1.36L53.79 9.24L56.88 1.36Z"></path></g><defs data-v-423bf9ae=""><linearGradient data-v-423bf9ae="" gradientTransform="rotate(25)" id="1ea04ade-ead3-4677-8ebb-9953a449bd90" x1="0%" y1="0%" x2="100%" y2="0%"><stop data-v-423bf9ae="" offset="0%" style="stop-color: rgb(48, 34, 58); stop-opacity: 1;"></stop><stop data-v-423bf9ae="" offset="100%" style="stop-color: rgb(241, 56, 0); stop-opacity: 1;"></stop></linearGradient></defs><g data-v-423bf9ae="" id="b50b3c76-e1a9-4cb9-8703-d9b856b9cdb8" transform="matrix(2.8125,0,0,2.8125,0,0)" stroke="none" fill="url(#1ea04ade-ead3-4677-8ebb-9953a449bd90)"><path d="M9.382 8.675h13.943v13.943L32 31.293V0H.707zM22.618 23.325H8.675V9.382L0 .707V32h31.293z"></path></g><!----><g data-v-423bf9ae="" id="f168a090-10bd-417c-8c6e-06f36e94dff2" fill="#250A05" transform="matrix(0.6522944158409105,0,0,0.6522944158409105,109.72603587235952,57.52780363266894)"><path d="M8.22 3.92L8.02 3.92L0.73 3.92L0.52 3.92L0.42 3.92L0.42 5.96L0.77 5.96C0.97 5.96 1.05 5.85 1.06 5.63C1.06 5.53 1.09 5.17 1.12 4.52L4.02 4.52L4.02 13.26C3.85 13.26 3.71 13.27 3.57 13.27C3.43 13.27 3.32 13.29 3.25 13.29L3.12 13.29C2.94 13.30 2.84 13.38 2.84 13.54L2.84 13.82L4.02 13.82L4.73 13.82L5.92 13.82L5.92 13.54C5.92 13.38 5.82 13.30 5.64 13.29L5.50 13.29C5.43 13.29 5.33 13.27 5.19 13.27C5.05 13.27 4.90 13.26 4.73 13.26L4.73 4.52L7.62 4.52C7.66 5.24 7.67 5.60 7.67 5.63C7.69 5.85 7.78 5.96 7.98 5.96L8.32 5.96L8.32 3.92ZM24.42 13.29L24.32 13.29L24.14 13.29C24.05 13.29 23.97 13.27 23.88 13.27L20.92 9.53C20.83 9.42 20.72 9.32 20.61 9.25C21.04 9.21 21.43 9.11 21.78 8.96C22.13 8.81 22.41 8.61 22.67 8.37C22.90 8.13 23.10 7.85 23.23 7.55C23.35 7.24 23.42 6.89 23.42 6.51C23.42 5.66 23.14 5.03 22.58 4.58C22.02 4.14 21.17 3.92 20.02 3.92L17.61 3.92L16.44 3.92L16.44 4.19C16.44 4.34 16.52 4.42 16.70 4.44L16.84 4.44C16.91 4.44 17.01 4.45 17.15 4.45C17.29 4.45 17.44 4.47 17.61 4.47L17.61 13.26C17.44 13.26 17.29 13.27 17.15 13.27C17.01 13.27 16.91 13.29 16.84 13.29L16.70 13.29C16.52 13.30 16.42 13.38 16.42 13.54L16.42 13.82L17.61 13.82L18.33 13.82L19.50 13.82L19.50 13.54C19.50 13.38 19.40 13.30 19.22 13.29L19.08 13.29C19.01 13.29 18.91 13.27 18.77 13.27C18.63 13.27 18.49 13.26 18.33 13.26L18.33 9.34L19.50 9.34C19.70 9.34 19.84 9.35 19.92 9.39C20.01 9.44 20.09 9.52 20.17 9.62L23.35 13.64C23.41 13.71 23.45 13.75 23.51 13.78C23.56 13.80 23.63 13.82 23.70 13.82L23.77 13.82L24.32 13.82L24.68 13.82L24.68 13.54C24.68 13.38 24.60 13.30 24.42 13.29ZM19.92 8.81L18.33 8.81L18.33 4.48L20.02 4.48C20.90 4.48 21.57 4.66 22.04 5.00C22.50 5.33 22.72 5.87 22.72 6.57C22.72 6.92 22.67 7.21 22.54 7.49C22.41 7.77 22.22 7.99 21.98 8.19C21.74 8.39 21.45 8.55 21.10 8.65C20.75 8.75 20.36 8.81 19.92 8.81ZM40.99 3.92L40.28 3.92L38.92 3.92L38.92 4.19C38.92 4.34 39.02 4.42 39.20 4.44L39.37 4.44C39.47 4.44 39.61 4.45 39.77 4.45C39.94 4.45 40.11 4.47 40.28 4.47L40.28 10.04C40.28 10.50 40.21 10.92 40.07 11.33C39.93 11.73 39.73 12.08 39.47 12.38C39.20 12.67 38.89 12.89 38.51 13.06C38.14 13.23 37.72 13.31 37.24 13.31C36.76 13.31 36.33 13.23 35.95 13.06C35.57 12.89 35.25 12.66 35 12.36C34.73 12.07 34.55 11.72 34.41 11.33C34.27 10.93 34.20 10.50 34.20 10.04L34.20 4.47C34.37 4.47 34.54 4.45 34.71 4.45C34.87 4.45 35.01 4.44 35.11 4.44L35.28 4.44C35.46 4.42 35.56 4.34 35.56 4.19L35.56 3.92L34.20 3.92L33.49 3.92L32.31 3.92L32.31 4.19C32.31 4.34 32.40 4.42 32.58 4.44L32.72 4.44C32.79 4.44 32.89 4.45 33.03 4.45C33.17 4.45 33.32 4.47 33.49 4.47L33.49 10.04C33.49 10.58 33.57 11.09 33.74 11.56C33.91 12.04 34.16 12.46 34.48 12.81C34.80 13.16 35.21 13.44 35.67 13.64C36.13 13.83 36.67 13.93 37.24 13.93C37.81 13.93 38.33 13.83 38.79 13.64C39.26 13.44 39.66 13.16 39.98 12.81C40.31 12.46 40.56 12.04 40.73 11.56C40.89 11.09 40.99 10.58 40.99 10.04L40.99 4.47C41.16 4.47 41.30 4.45 41.44 4.45C41.58 4.45 41.69 4.44 41.76 4.44L41.89 4.44C42.07 4.42 42.17 4.34 42.17 4.19L42.17 3.92ZM55.92 9.91C55.78 9.65 55.58 9.39 55.34 9.21C55.10 9.03 54.85 8.88 54.56 8.75C54.26 8.62 53.94 8.51 53.63 8.41C53.33 8.32 53.02 8.20 52.72 8.11C52.43 7.99 52.16 7.87 51.93 7.71C51.69 7.56 51.51 7.38 51.37 7.15C51.23 6.93 51.14 6.65 51.14 6.31C51.14 6.06 51.20 5.82 51.30 5.59C51.39 5.35 51.53 5.15 51.72 4.97C51.90 4.79 52.12 4.65 52.40 4.55C52.68 4.45 52.99 4.40 53.35 4.40C54.03 4.40 54.64 4.51 55.20 4.75C55.24 5.54 55.27 5.99 55.27 6.06C55.29 6.29 55.37 6.41 55.57 6.41L55.90 6.41L55.90 4.38C55.02 4.00 54.18 3.81 53.35 3.81C52.89 3.81 52.49 3.88 52.12 4.02C51.76 4.16 51.46 4.34 51.23 4.58C50.99 4.82 50.79 5.08 50.67 5.39C50.54 5.70 50.48 6.02 50.48 6.36C50.48 6.78 50.55 7.14 50.69 7.42C50.83 7.70 51.03 7.92 51.27 8.12C51.51 8.32 51.76 8.46 52.05 8.58C52.35 8.71 52.67 8.82 52.98 8.92C53.28 9.02 53.58 9.11 53.89 9.21C54.18 9.31 54.45 9.45 54.68 9.60C54.92 9.76 55.10 9.94 55.24 10.16C55.38 10.39 55.45 10.68 55.45 11.03C55.45 11.35 55.40 11.66 55.29 11.94C55.17 12.22 55.02 12.46 54.81 12.67C54.60 12.88 54.33 13.05 54.03 13.16C53.72 13.29 53.37 13.33 52.98 13.33C52.19 13.33 51.53 13.20 51.00 12.95C50.99 12.75 50.99 12.54 50.97 12.32C50.96 12.10 50.96 11.91 50.95 11.76C50.93 11.61 50.93 11.52 50.93 11.51C50.92 11.28 50.82 11.17 50.62 11.17L50.29 11.17L50.29 13.02L50.29 13.20L50.29 13.38C51.14 13.75 52.02 13.93 52.95 13.93C53.45 13.93 53.90 13.85 54.29 13.69C54.68 13.54 55.02 13.31 55.29 13.05C55.55 12.78 55.78 12.46 55.92 12.10C56.06 11.73 56.13 11.34 56.13 10.92C56.13 10.51 56.06 10.18 55.92 9.91ZM71.90 3.92L71.71 3.92L64.41 3.92L64.20 3.92L64.11 3.92L64.11 5.96L64.46 5.96C64.65 5.96 64.74 5.85 64.75 5.63C64.75 5.53 64.78 5.17 64.81 4.52L67.70 4.52L67.70 13.26C67.54 13.26 67.40 13.27 67.26 13.27C67.12 13.27 67.00 13.29 66.93 13.29L66.81 13.29C66.63 13.30 66.53 13.38 66.53 13.54L66.53 13.82L67.70 13.82L68.42 13.82L69.61 13.82L69.61 13.54C69.61 13.38 69.51 13.30 69.33 13.29L69.19 13.29C69.12 13.29 69.02 13.27 68.88 13.27C68.74 13.27 68.59 13.26 68.42 13.26L68.42 4.52L71.30 4.52C71.34 5.24 71.36 5.60 71.36 5.63C71.37 5.85 71.47 5.96 71.67 5.96L72.00 5.96L72.00 3.92ZM81.30 3.92L80.11 3.92L80.11 4.19C80.11 4.34 80.21 4.42 80.39 4.44L80.53 4.44C80.60 4.44 80.70 4.45 80.84 4.45C80.98 4.45 81.13 4.47 81.30 4.47L81.30 13.26C81.13 13.26 80.98 13.27 80.84 13.27C80.70 13.27 80.60 13.29 80.53 13.29L80.39 13.29C80.21 13.30 80.12 13.38 80.12 13.54L80.12 13.82L81.30 13.82L87.23 13.82L87.23 13.22L87.23 11.76L86.88 11.76C86.69 11.76 86.60 11.89 86.59 12.11C86.59 12.14 86.58 12.19 86.58 12.29C86.58 12.39 86.58 12.53 86.56 12.74C86.55 12.95 86.53 13.09 86.53 13.22L82.01 13.22L82.01 9.09L85.96 9.09L85.96 8.51L82.01 8.51L82.01 4.51L86.53 4.51C86.56 5.12 86.59 5.50 86.59 5.63C86.60 5.85 86.69 5.96 86.88 5.96L87.23 5.96L87.23 4.51L87.23 3.92ZM104.82 6.80C104.59 6.19 104.27 5.68 103.85 5.25C103.43 4.82 102.94 4.48 102.37 4.26C101.79 4.03 101.14 3.92 100.44 3.92L97.01 3.92L95.82 3.92L95.82 4.19C95.82 4.34 95.91 4.42 96.10 4.44L96.24 4.44C96.31 4.44 96.40 4.45 96.54 4.45C96.68 4.45 96.84 4.47 97.01 4.47L97.01 13.26C96.84 13.26 96.68 13.27 96.54 13.27C96.40 13.27 96.31 13.29 96.24 13.29L96.10 13.29C95.91 13.30 95.82 13.38 95.82 13.54L95.82 13.82L97.01 13.82L100.44 13.82C101.14 13.82 101.79 13.71 102.37 13.48C102.94 13.26 103.43 12.92 103.85 12.49C104.27 12.05 104.59 11.54 104.82 10.92C105.04 10.30 105.17 9.63 105.17 8.86C105.17 8.11 105.04 7.42 104.82 6.80ZM104.13 10.72C103.94 11.27 103.68 11.72 103.33 12.10C102.98 12.47 102.56 12.75 102.07 12.95C101.58 13.15 101.04 13.24 100.44 13.24L97.72 13.24L97.72 4.49L100.44 4.49C101.04 4.49 101.58 4.59 102.07 4.79C102.56 4.98 102.98 5.26 103.33 5.64C103.68 6.02 103.94 6.47 104.13 7.01C104.33 7.56 104.43 8.18 104.43 8.86C104.43 9.56 104.33 10.18 104.13 10.72ZM133.13 13.22L132.66 13.17L128.88 3.91L128.17 3.91L124.38 13.17L123.93 13.22C123.75 13.23 123.66 13.33 123.66 13.50L123.66 13.82L124.11 13.82L124.40 13.82L124.66 13.82L124.75 13.82L126.07 13.82L126.07 13.50C126.07 13.31 125.96 13.23 125.75 13.22C125.73 13.22 125.71 13.20 125.66 13.20C125.62 13.20 125.57 13.19 125.47 13.19C125.37 13.19 125.24 13.19 125.10 13.17L126.08 10.75L126.15 10.57L130.89 10.57L130.96 10.75L131.94 13.17C131.80 13.19 131.68 13.19 131.59 13.19C131.49 13.19 131.42 13.20 131.38 13.20C131.33 13.20 131.31 13.22 131.29 13.22C131.08 13.23 130.97 13.31 130.97 13.50L130.97 13.82L132.29 13.82L132.38 13.82L132.65 13.82L132.93 13.82L133.39 13.82L133.39 13.50C133.39 13.33 133.31 13.23 133.13 13.22ZM128.32 5.22C128.35 5.14 128.39 5.04 128.42 4.94C128.45 4.84 128.49 4.75 128.52 4.63C128.55 4.75 128.59 4.84 128.62 4.94C128.65 5.04 128.69 5.12 128.72 5.21L130.68 10.04L126.38 10.04ZM150.46 3.92L149.83 3.92L148.61 3.92L148.61 4.19C148.61 4.34 148.71 4.42 148.89 4.44L149.03 4.44C149.10 4.44 149.21 4.45 149.35 4.45C149.49 4.45 149.66 4.47 149.83 4.47L149.83 12.22C149.83 12.35 149.83 12.49 149.84 12.63L143.43 4.05C143.39 3.99 143.36 3.95 143.32 3.93C143.28 3.92 143.23 3.91 143.16 3.91L142.81 3.91L141.62 3.91L141.62 4.19C141.62 4.34 141.72 4.42 141.90 4.44L142.04 4.44C142.11 4.44 142.21 4.45 142.35 4.45C142.49 4.45 142.65 4.47 142.81 4.47L142.81 13.26C142.65 13.26 142.49 13.27 142.35 13.27C142.21 13.27 142.11 13.29 142.04 13.29L141.90 13.29C141.72 13.30 141.62 13.38 141.62 13.54L141.62 13.82L142.81 13.82L143.43 13.82L144.65 13.82L144.65 13.54C144.65 13.38 144.55 13.30 144.37 13.29L144.23 13.29C144.16 13.29 144.03 13.27 143.89 13.27C143.75 13.27 143.60 13.26 143.43 13.26L143.43 5.49C143.43 5.36 143.43 5.22 143.42 5.08L149.86 13.68C149.93 13.78 150.00 13.82 150.11 13.82L150.46 13.82L150.46 4.47C150.63 4.47 150.77 4.45 150.91 4.45C151.05 4.45 151.16 4.44 151.23 4.44L151.35 4.44C151.54 4.42 151.63 4.34 151.63 4.19L151.63 3.92ZM168.67 6.80C168.45 6.19 168.13 5.68 167.71 5.25C167.29 4.82 166.80 4.48 166.22 4.26C165.65 4.03 164.99 3.92 164.29 3.92L160.86 3.92L159.67 3.92L159.67 4.19C159.67 4.34 159.77 4.42 159.95 4.44L160.09 4.44C160.16 4.44 160.26 4.45 160.40 4.45C160.54 4.45 160.69 4.47 160.86 4.47L160.86 13.26C160.69 13.26 160.54 13.27 160.40 13.27C160.26 13.27 160.16 13.29 160.09 13.29L159.95 13.29C159.77 13.30 159.67 13.38 159.67 13.54L159.67 13.82L160.86 13.82L164.29 13.82C164.99 13.82 165.65 13.71 166.22 13.48C166.80 13.26 167.29 12.92 167.71 12.49C168.13 12.05 168.45 11.54 168.67 10.92C168.90 10.30 169.02 9.63 169.02 8.86C169.02 8.11 168.90 7.42 168.67 6.80ZM167.99 10.72C167.79 11.27 167.54 11.72 167.19 12.10C166.84 12.47 166.42 12.75 165.93 12.95C165.44 13.15 164.89 13.24 164.29 13.24L161.57 13.24L161.57 4.49L164.29 4.49C164.89 4.49 165.44 4.59 165.93 4.79C166.42 4.98 166.84 5.26 167.19 5.64C167.54 6.02 167.79 6.47 167.99 7.01C168.18 7.56 168.28 8.18 168.28 8.86C168.28 9.56 168.18 10.18 167.99 10.72ZM188.87 3.92L187.68 3.92L187.68 4.19C187.68 4.34 187.78 4.42 187.96 4.44L188.10 4.44C188.17 4.44 188.27 4.45 188.41 4.45C188.55 4.45 188.71 4.47 188.87 4.47L188.87 13.26C188.71 13.26 188.55 13.27 188.41 13.27C188.27 13.27 188.17 13.29 188.10 13.29L187.96 13.29C187.78 13.30 187.70 13.38 187.70 13.54L187.70 13.82L188.87 13.82L194.81 13.82L194.81 13.22L194.81 11.76L194.46 11.76C194.26 11.76 194.18 11.89 194.17 12.11C194.17 12.14 194.15 12.19 194.15 12.29C194.15 12.39 194.15 12.53 194.14 12.74C194.12 12.95 194.11 13.09 194.11 13.22L189.59 13.22L189.59 9.09L193.54 9.09L193.54 8.51L189.59 8.51L189.59 4.51L194.11 4.51C194.14 5.12 194.17 5.50 194.17 5.63C194.18 5.85 194.26 5.96 194.46 5.96L194.81 5.96L194.81 4.51L194.81 3.92ZM212.04 13.29L211.96 13.29C211.92 13.29 211.85 13.27 211.78 13.27C211.71 13.27 211.62 13.26 211.53 13.26L208.35 8.69L211.39 4.47C211.50 4.47 211.57 4.45 211.65 4.45C211.74 4.45 211.81 4.44 211.85 4.44L211.95 4.44C212.13 4.42 212.23 4.34 212.23 4.19L212.23 3.92L211.78 3.92L211.51 3.92L211.09 3.92L211.05 3.92L209.45 3.92L209.45 4.19C209.45 4.34 209.55 4.42 209.73 4.44L209.85 4.44C209.90 4.44 210.00 4.45 210.14 4.45C210.28 4.45 210.42 4.47 210.59 4.47L207.97 8.18C207.94 8.22 207.93 8.25 207.91 8.29C207.90 8.32 207.89 8.36 207.87 8.40L205.16 4.47C205.31 4.47 205.44 4.45 205.56 4.45C205.69 4.45 205.77 4.44 205.81 4.44L205.93 4.44C206.11 4.42 206.19 4.34 206.19 4.19L206.19 3.92L204.65 3.92L204.64 3.92L204.13 3.92L203.92 3.92L203.48 3.92L203.48 4.19C203.48 4.34 203.57 4.42 203.76 4.44L203.85 4.44C203.90 4.44 203.97 4.45 204.05 4.45C204.13 4.45 204.22 4.47 204.33 4.47L207.34 8.74L204.16 13.26C204.05 13.26 203.97 13.27 203.88 13.27C203.80 13.27 203.73 13.29 203.69 13.29L203.59 13.29C203.41 13.30 203.31 13.38 203.31 13.54L203.31 13.82L203.77 13.82L204.02 13.82L204.41 13.82L204.50 13.82L206.09 13.82L206.09 13.54C206.09 13.38 206.00 13.30 205.81 13.29L205.69 13.29C205.63 13.29 205.52 13.27 205.39 13.27C205.27 13.27 205.11 13.26 204.95 13.26L204.95 13.26L207.75 9.28C207.79 9.21 207.83 9.16 207.84 9.09L210.70 13.26C210.55 13.26 210.41 13.27 210.28 13.27C210.15 13.27 210.06 13.29 210.01 13.29L209.92 13.29C209.73 13.30 209.64 13.38 209.64 13.54L209.64 13.82L211.15 13.82L211.20 13.82L211.71 13.82L211.92 13.82L212.32 13.82L212.32 13.54C212.32 13.38 212.23 13.30 212.04 13.29ZM226.87 4.68C226.28 4.17 225.40 3.92 224.24 3.92L221.83 3.92L220.64 3.92L220.64 4.19C220.64 4.34 220.74 4.42 220.92 4.44L221.06 4.44C221.13 4.44 221.23 4.45 221.37 4.45C221.51 4.45 221.66 4.47 221.83 4.47L221.83 13.26C221.66 13.26 221.51 13.27 221.37 13.27C221.23 13.27 221.13 13.29 221.06 13.29L220.92 13.29C220.74 13.30 220.64 13.38 220.64 13.54L220.64 13.82L221.83 13.82L222.54 13.82L223.72 13.82L223.72 13.54C223.72 13.38 223.62 13.30 223.44 13.29L223.31 13.29C223.24 13.29 223.13 13.27 222.99 13.27C222.85 13.27 222.71 13.26 222.54 13.26L222.54 9.83L224.24 9.83C224.78 9.83 225.27 9.74 225.71 9.60C226.14 9.45 226.51 9.25 226.81 8.99C227.12 8.72 227.36 8.41 227.51 8.05C227.68 7.69 227.75 7.29 227.75 6.86C227.75 5.92 227.46 5.18 226.87 4.68ZM226.84 7.81C226.72 8.11 226.53 8.36 226.30 8.57C226.06 8.78 225.76 8.95 225.41 9.07C225.06 9.20 224.67 9.25 224.24 9.25L222.54 9.25L222.54 4.48L224.24 4.48C225.16 4.48 225.86 4.69 226.34 5.10C226.80 5.50 227.04 6.09 227.04 6.85C227.04 7.20 226.97 7.52 226.84 7.81ZM237.13 3.92L235.94 3.92L235.94 4.19C235.94 4.34 236.04 4.42 236.22 4.44L236.36 4.44C236.43 4.44 236.53 4.45 236.67 4.45C236.81 4.45 236.96 4.47 237.13 4.47L237.13 13.26C236.96 13.26 236.81 13.27 236.67 13.27C236.53 13.27 236.43 13.29 236.36 13.29L236.22 13.29C236.04 13.30 235.96 13.38 235.96 13.54L235.96 13.82L237.13 13.82L243.07 13.82L243.07 13.22L243.07 11.76L242.72 11.76C242.52 11.76 242.44 11.89 242.42 12.11C242.42 12.14 242.41 12.19 242.41 12.29C242.41 12.39 242.41 12.53 242.40 12.74C242.38 12.95 242.37 13.09 242.37 13.22L237.85 13.22L237.85 9.09L241.79 9.09L241.79 8.51L237.85 8.51L237.85 4.51L242.37 4.51C242.40 5.12 242.42 5.50 242.42 5.63C242.44 5.85 242.52 5.96 242.72 5.96L243.07 5.96L243.07 4.51L243.07 3.92ZM259.64 13.29L259.55 13.29L259.36 13.29C259.28 13.29 259.20 13.27 259.11 13.27L256.14 9.53C256.06 9.42 255.95 9.32 255.84 9.25C256.27 9.21 256.66 9.11 257.01 8.96C257.36 8.81 257.64 8.61 257.89 8.37C258.13 8.13 258.33 7.85 258.45 7.55C258.58 7.24 258.65 6.89 258.65 6.51C258.65 5.66 258.37 5.03 257.81 4.58C257.25 4.14 256.40 3.92 255.25 3.92L252.84 3.92L251.66 3.92L251.66 4.19C251.66 4.34 251.75 4.42 251.93 4.44L252.07 4.44C252.14 4.44 252.24 4.45 252.38 4.45C252.52 4.45 252.67 4.47 252.84 4.47L252.84 13.26C252.67 13.26 252.52 13.27 252.38 13.27C252.24 13.27 252.14 13.29 252.07 13.29L251.93 13.29C251.75 13.30 251.65 13.38 251.65 13.54L251.65 13.82L252.84 13.82L253.55 13.82L254.73 13.82L254.73 13.54C254.73 13.38 254.63 13.30 254.45 13.29L254.31 13.29C254.24 13.29 254.14 13.27 254.00 13.27C253.86 13.27 253.72 13.26 253.55 13.26L253.55 9.34L254.73 9.34C254.93 9.34 255.07 9.35 255.15 9.39C255.23 9.44 255.32 9.52 255.40 9.62L258.58 13.64C258.64 13.71 258.68 13.75 258.73 13.78C258.79 13.80 258.86 13.82 258.93 13.82L259.00 13.82L259.55 13.82L259.91 13.82L259.91 13.54C259.91 13.38 259.83 13.30 259.64 13.29ZM255.15 8.81L253.55 8.81L253.55 4.48L255.25 4.48C256.13 4.48 256.80 4.66 257.26 5.00C257.73 5.33 257.95 5.87 257.95 6.57C257.95 6.92 257.89 7.21 257.77 7.49C257.64 7.77 257.45 7.99 257.21 8.19C256.97 8.39 256.68 8.55 256.33 8.65C255.98 8.75 255.58 8.81 255.15 8.81ZM275.32 3.92L275.13 3.92L267.83 3.92L267.62 3.92L267.53 3.92L267.53 5.96L267.88 5.96C268.07 5.96 268.16 5.85 268.17 5.63C268.17 5.53 268.20 5.17 268.23 4.52L271.12 4.52L271.12 13.26C270.96 13.26 270.82 13.27 270.68 13.27C270.54 13.27 270.42 13.29 270.35 13.29L270.23 13.29C270.05 13.30 269.95 13.38 269.95 13.54L269.95 13.82L271.12 13.82L271.84 13.82L273.03 13.82L273.03 13.54C273.03 13.38 272.93 13.30 272.75 13.29L272.61 13.29C272.54 13.29 272.44 13.27 272.30 13.27C272.16 13.27 272.01 13.26 271.84 13.26L271.84 4.52L274.72 4.52C274.76 5.24 274.78 5.60 274.78 5.63C274.79 5.85 274.89 5.96 275.09 5.96L275.42 5.96L275.42 3.92ZM301.63 12.21C301.60 12.18 301.56 12.15 301.52 12.15C301.49 12.15 301.48 12.15 301.45 12.17C301.43 12.18 301.41 12.21 301.38 12.22C301.18 12.40 300.97 12.56 300.78 12.70C300.58 12.84 300.37 12.94 300.13 13.03C299.89 13.13 299.64 13.20 299.36 13.24C299.08 13.29 298.77 13.31 298.42 13.31C297.86 13.31 297.32 13.22 296.84 13.01C296.35 12.81 295.95 12.52 295.60 12.14C295.25 11.76 294.95 11.28 294.76 10.74C294.56 10.19 294.46 9.56 294.46 8.86C294.46 8.18 294.56 7.56 294.76 7.01C294.97 6.47 295.25 6.01 295.61 5.61C295.97 5.24 296.41 4.94 296.91 4.73C297.42 4.52 297.96 4.42 298.56 4.42C299.46 4.42 300.29 4.56 301.01 4.89C301.06 5.78 301.10 6.30 301.10 6.41C301.11 6.64 301.20 6.75 301.39 6.75L301.73 6.75L301.73 4.51C300.55 4.03 299.49 3.81 298.56 3.81C297.85 3.81 297.21 3.92 296.60 4.17C296.02 4.42 295.48 4.76 295.06 5.21C294.63 5.66 294.31 6.19 294.07 6.80C293.83 7.42 293.72 8.11 293.72 8.86C293.72 9.63 293.85 10.32 294.07 10.95C294.29 11.58 294.62 12.10 295.02 12.54C295.43 12.99 295.92 13.33 296.49 13.57C297.07 13.80 297.68 13.93 298.37 13.93C298.77 13.93 299.15 13.90 299.50 13.83C299.84 13.76 300.16 13.66 300.45 13.54C300.73 13.41 301.00 13.26 301.24 13.09C301.48 12.91 301.70 12.73 301.91 12.50ZM319.19 8.86C319.19 8.11 319.06 7.41 318.84 6.79C318.61 6.17 318.29 5.64 317.87 5.19C317.45 4.75 316.96 4.40 316.39 4.16C315.81 3.92 315.15 3.79 314.45 3.79C313.75 3.79 313.12 3.92 312.55 4.16C311.98 4.40 311.47 4.75 311.05 5.19C310.63 5.64 310.31 6.17 310.09 6.79C309.86 7.41 309.74 8.11 309.74 8.86C309.74 9.63 309.86 10.33 310.09 10.95C310.31 11.56 310.63 12.10 311.05 12.54C311.47 12.99 311.98 13.33 312.55 13.57C313.12 13.80 313.75 13.93 314.45 13.93C315.15 13.93 315.81 13.80 316.39 13.57C316.96 13.33 317.45 12.99 317.87 12.54C318.29 12.10 318.61 11.56 318.84 10.95C319.06 10.33 319.19 9.63 319.19 8.86ZM318.43 8.86C318.43 9.56 318.35 10.18 318.15 10.72C317.95 11.27 317.69 11.75 317.34 12.12C316.99 12.50 316.57 12.81 316.08 13.01C315.59 13.20 315.06 13.30 314.45 13.30C313.87 13.30 313.33 13.20 312.84 13.01C312.35 12.81 311.93 12.50 311.58 12.12C311.23 11.75 310.95 11.27 310.76 10.72C310.56 10.18 310.48 9.56 310.48 8.86C310.48 8.18 310.56 7.55 310.76 7.00C310.95 6.45 311.23 5.98 311.58 5.60C311.93 5.22 312.35 4.91 312.84 4.72C313.33 4.52 313.87 4.41 314.45 4.41C315.06 4.41 315.59 4.52 316.08 4.72C316.57 4.91 316.99 5.22 317.34 5.60C317.69 5.98 317.95 6.45 318.15 7.00C318.35 7.55 318.43 8.18 318.43 8.86ZM336.01 3.92L335.38 3.92L334.17 3.92L334.17 4.19C334.17 4.34 334.26 4.42 334.45 4.44L334.59 4.44C334.66 4.44 334.77 4.45 334.91 4.45C335.05 4.45 335.22 4.47 335.38 4.47L335.38 12.22C335.38 12.35 335.38 12.49 335.40 12.63L328.99 4.05C328.94 3.99 328.92 3.95 328.87 3.93C328.83 3.92 328.79 3.91 328.72 3.91L328.37 3.91L327.18 3.91L327.18 4.19C327.18 4.34 327.28 4.42 327.46 4.44L327.60 4.44C327.67 4.44 327.77 4.45 327.91 4.45C328.05 4.45 328.20 4.47 328.37 4.47L328.37 13.26C328.20 13.26 328.05 13.27 327.91 13.27C327.77 13.27 327.67 13.29 327.60 13.29L327.46 13.29C327.28 13.30 327.18 13.38 327.18 13.54L327.18 13.82L328.37 13.82L328.99 13.82L330.20 13.82L330.20 13.54C330.20 13.38 330.11 13.30 329.92 13.29L329.78 13.29C329.71 13.29 329.59 13.27 329.45 13.27C329.31 13.27 329.15 13.26 328.99 13.26L328.99 5.49C328.99 5.36 328.99 5.22 328.97 5.08L335.41 13.68C335.48 13.78 335.55 13.82 335.66 13.82L336.01 13.82L336.01 4.47C336.18 4.47 336.32 4.45 336.46 4.45C336.60 4.45 336.71 4.44 336.78 4.44L336.91 4.44C337.09 4.42 337.19 4.34 337.19 4.19L337.19 3.92ZM350.95 9.91C350.81 9.65 350.62 9.39 350.38 9.21C350.14 9.03 349.89 8.88 349.59 8.75C349.30 8.62 348.98 8.51 348.67 8.41C348.36 8.32 348.05 8.20 347.76 8.11C347.47 7.99 347.20 7.87 346.96 7.71C346.72 7.56 346.54 7.38 346.40 7.15C346.26 6.93 346.18 6.65 346.18 6.31C346.18 6.06 346.23 5.82 346.33 5.59C346.43 5.35 346.57 5.15 346.75 4.97C346.93 4.79 347.16 4.65 347.44 4.55C347.72 4.45 348.03 4.40 348.39 4.40C349.06 4.40 349.68 4.51 350.24 4.75C350.28 5.54 350.31 5.99 350.31 6.06C350.32 6.29 350.41 6.41 350.60 6.41L350.94 6.41L350.94 4.38C350.06 4.00 349.22 3.81 348.39 3.81C347.93 3.81 347.52 3.88 347.16 4.02C346.79 4.16 346.50 4.34 346.26 4.58C346.02 4.82 345.83 5.08 345.70 5.39C345.58 5.70 345.52 6.02 345.52 6.36C345.52 6.78 345.59 7.14 345.73 7.42C345.87 7.70 346.07 7.92 346.30 8.12C346.54 8.32 346.79 8.46 347.09 8.58C347.38 8.71 347.70 8.82 348.01 8.92C348.32 9.02 348.61 9.11 348.92 9.21C349.22 9.31 349.48 9.45 349.72 9.60C349.96 9.76 350.14 9.94 350.28 10.16C350.42 10.39 350.49 10.68 350.49 11.03C350.49 11.35 350.43 11.66 350.32 11.94C350.21 12.22 350.06 12.46 349.85 12.67C349.64 12.88 349.37 13.05 349.06 13.16C348.75 13.29 348.40 13.33 348.01 13.33C347.23 13.33 346.57 13.20 346.04 12.95C346.02 12.75 346.02 12.54 346.01 12.32C346.00 12.10 346.00 11.91 345.98 11.76C345.97 11.61 345.97 11.52 345.97 11.51C345.95 11.28 345.86 11.17 345.66 11.17L345.32 11.17L345.32 13.02L345.32 13.20L345.32 13.38C346.18 13.75 347.06 13.93 347.98 13.93C348.49 13.93 348.94 13.85 349.33 13.69C349.72 13.54 350.06 13.31 350.32 13.05C350.59 12.78 350.81 12.46 350.95 12.10C351.09 11.73 351.16 11.34 351.16 10.92C351.16 10.51 351.09 10.18 350.95 9.91ZM367.74 3.92L367.02 3.92L365.67 3.92L365.67 4.19C365.67 4.34 365.76 4.42 365.95 4.44L366.11 4.44C366.21 4.44 366.35 4.45 366.52 4.45C366.69 4.45 366.86 4.47 367.02 4.47L367.02 10.04C367.02 10.50 366.95 10.92 366.81 11.33C366.67 11.73 366.48 12.08 366.21 12.38C365.95 12.67 365.64 12.89 365.26 13.06C364.88 13.23 364.46 13.31 363.99 13.31C363.51 13.31 363.08 13.23 362.70 13.06C362.32 12.89 362.00 12.66 361.75 12.36C361.48 12.07 361.30 11.72 361.16 11.33C361.02 10.93 360.95 10.50 360.95 10.04L360.95 4.47C361.12 4.47 361.28 4.45 361.45 4.45C361.62 4.45 361.76 4.44 361.86 4.44L362.03 4.44C362.21 4.42 362.31 4.34 362.31 4.19L362.31 3.92L360.95 3.92L360.23 3.92L359.06 3.92L359.06 4.19C359.06 4.34 359.14 4.42 359.32 4.44L359.46 4.44C359.53 4.44 359.63 4.45 359.77 4.45C359.91 4.45 360.07 4.47 360.23 4.47L360.23 10.04C360.23 10.58 360.32 11.09 360.49 11.56C360.65 12.04 360.91 12.46 361.23 12.81C361.55 13.16 361.96 13.44 362.42 13.64C362.88 13.83 363.41 13.93 363.99 13.93C364.56 13.93 365.08 13.83 365.54 13.64C366.00 13.44 366.41 13.16 366.73 12.81C367.05 12.46 367.30 12.04 367.47 11.56C367.64 11.09 367.74 10.58 367.74 10.04L367.74 4.47C367.91 4.47 368.05 4.45 368.19 4.45C368.33 4.45 368.44 4.44 368.51 4.44L368.63 4.44C368.82 4.42 368.91 4.34 368.91 4.19L368.91 3.92ZM383.31 11.97C383.11 11.97 383.03 12.08 383.01 12.31C383.01 12.32 383.01 12.38 383.00 12.43C382.98 12.49 382.98 12.59 382.97 12.71C382.96 12.84 382.94 13.01 382.93 13.20L378.84 13.20L378.84 4.47C379.01 4.47 379.15 4.45 379.29 4.45C379.43 4.45 379.54 4.44 379.61 4.44L379.74 4.44C379.92 4.42 380.02 4.34 380.02 4.19L380.02 3.92L378.84 3.92L378.13 3.92L376.94 3.92L376.94 4.19C376.94 4.34 377.03 4.42 377.22 4.44L377.36 4.44C377.43 4.44 377.52 4.45 377.66 4.45C377.80 4.45 377.96 4.47 378.13 4.47L378.13 13.26C377.96 13.26 377.80 13.27 377.66 13.27C377.52 13.27 377.43 13.29 377.36 13.29L377.22 13.29C377.03 13.30 376.94 13.38 376.94 13.54L376.94 13.82L378.13 13.82L383.40 13.82L383.53 13.82L383.66 13.82L383.66 13.55L383.66 12.99L383.66 11.97L383.38 11.97ZM398.45 3.92L398.26 3.92L390.96 3.92L390.75 3.92L390.66 3.92L390.66 5.96L391.01 5.96C391.20 5.96 391.29 5.85 391.30 5.63C391.30 5.53 391.33 5.17 391.36 4.52L394.25 4.52L394.25 13.26C394.09 13.26 393.95 13.27 393.81 13.27C393.67 13.27 393.55 13.29 393.48 13.29L393.36 13.29C393.18 13.30 393.08 13.38 393.08 13.54L393.08 13.82L394.25 13.82L394.97 13.82L396.16 13.82L396.16 13.54C396.16 13.38 396.06 13.30 395.88 13.29L395.74 13.29C395.67 13.29 395.57 13.27 395.43 13.27C395.29 13.27 395.14 13.26 394.97 13.26L394.97 4.52L397.85 4.52C397.89 5.24 397.91 5.60 397.91 5.63C397.92 5.85 398.02 5.96 398.22 5.96L398.55 5.96L398.55 3.92ZM409.47 4.44C409.65 4.42 409.74 4.34 409.74 4.19L409.74 3.91L408.56 3.91L407.85 3.91L406.66 3.91L406.66 4.19C406.66 4.34 406.76 4.42 406.94 4.44L407.08 4.44C407.15 4.44 407.25 4.45 407.39 4.45C407.53 4.45 407.68 4.47 407.85 4.47L407.85 13.26C407.68 13.26 407.53 13.27 407.39 13.27C407.25 13.27 407.15 13.29 407.08 13.29L406.94 13.29C406.76 13.30 406.66 13.38 406.66 13.54L406.66 13.82L407.85 13.82L408.56 13.82L409.74 13.82L409.74 13.54C409.74 13.38 409.65 13.30 409.47 13.29L409.33 13.29C409.26 13.29 409.16 13.27 409.02 13.27C408.88 13.27 408.73 13.26 408.56 13.26L408.56 4.47C408.73 4.47 408.88 4.45 409.02 4.45C409.16 4.45 409.26 4.44 409.33 4.44ZM426.92 3.92L426.29 3.92L425.07 3.92L425.07 4.19C425.07 4.34 425.17 4.42 425.35 4.44L425.49 4.44C425.56 4.44 425.67 4.45 425.81 4.45C425.95 4.45 426.12 4.47 426.29 4.47L426.29 12.22C426.29 12.35 426.29 12.49 426.30 12.63L419.89 4.05C419.85 3.99 419.82 3.95 419.78 3.93C419.73 3.92 419.69 3.91 419.62 3.91L419.27 3.91L418.08 3.91L418.08 4.19C418.08 4.34 418.18 4.42 418.36 4.44L418.50 4.44C418.57 4.44 418.67 4.45 418.81 4.45C418.95 4.45 419.10 4.47 419.27 4.47L419.27 13.26C419.10 13.26 418.95 13.27 418.81 13.27C418.67 13.27 418.57 13.29 418.50 13.29L418.36 13.29C418.18 13.30 418.08 13.38 418.08 13.54L418.08 13.82L419.27 13.82L419.89 13.82L421.11 13.82L421.11 13.54C421.11 13.38 421.01 13.30 420.83 13.29L420.69 13.29C420.62 13.29 420.49 13.27 420.35 13.27C420.21 13.27 420.06 13.26 419.89 13.26L419.89 5.49C419.89 5.36 419.89 5.22 419.87 5.08L426.31 13.68C426.38 13.78 426.45 13.82 426.57 13.82L426.92 13.82L426.92 4.47C427.08 4.47 427.22 4.45 427.36 4.45C427.50 4.45 427.62 4.44 427.69 4.44L427.81 4.44C427.99 4.42 428.09 4.34 428.09 4.19L428.09 3.92ZM441.77 9.32L441.77 9.72C441.77 9.76 441.80 9.80 441.83 9.83C441.85 9.86 441.90 9.87 441.95 9.87L443.86 9.87L443.86 12.54C443.63 12.67 443.41 12.78 443.20 12.88C442.99 12.98 442.75 13.08 442.51 13.15C442.27 13.22 442.01 13.27 441.73 13.30C441.45 13.33 441.14 13.34 440.80 13.34C440.19 13.34 439.63 13.24 439.12 13.03C438.62 12.82 438.19 12.53 437.82 12.15C437.46 11.77 437.18 11.30 436.98 10.74C436.79 10.18 436.67 9.56 436.67 8.86C436.67 8.18 436.79 7.56 436.98 7.01C437.18 6.47 437.46 5.99 437.82 5.61C438.19 5.24 438.63 4.94 439.15 4.73C439.67 4.52 440.24 4.42 440.89 4.42C442.06 4.42 443.00 4.58 443.69 4.90C443.73 5.81 443.76 6.31 443.76 6.41C443.77 6.64 443.87 6.75 444.07 6.75L444.40 6.75L444.40 4.51C443.97 4.31 443.41 4.14 442.71 4.00C442.01 3.86 441.42 3.81 440.92 3.81C440.16 3.81 439.47 3.92 438.86 4.16C438.24 4.40 437.72 4.75 437.29 5.18C436.86 5.61 436.53 6.15 436.30 6.78C436.06 7.39 435.95 8.09 435.95 8.86C435.95 9.63 436.06 10.32 436.30 10.95C436.53 11.58 436.86 12.10 437.28 12.54C437.70 12.99 438.21 13.33 438.80 13.57C439.39 13.80 440.03 13.93 440.75 13.93C441.17 13.93 441.55 13.90 441.90 13.86C442.25 13.80 442.57 13.73 442.88 13.65C443.18 13.55 443.46 13.44 443.73 13.30C444.00 13.16 444.25 13.01 444.50 12.84L444.50 9.32Z"></path></g></svg>